<svg viewBox="0 0 801 97" xmlns="http://www.w3.org/2000/svg">
    <path d="M19.594 56.688L15.64 58.14l3.954 1.397 31.86 10.64v15.756L0 64.595V51.513l51.455-21.338v15.7l-31.86 10.813zm79.57 20.873c1.59 0 3.1-.232 4.536-.697 1.434-.465 2.694-1.124 3.78-1.977 1.084-.852 1.927-1.88 2.528-3.08.6-1.203.862-2.54.785-4.013h15.233c.078 3.256-.59 6.28-2.006 9.07-1.415 2.79-3.343 5.194-5.785 7.21-2.442 2.015-5.28 3.595-8.518 4.738-3.236 1.145-6.657 1.716-10.262 1.716-4.884 0-9.167-.823-12.85-2.47-3.68-1.648-6.753-3.906-9.214-6.774-2.46-2.868-4.32-6.23-5.58-10.088-1.26-3.856-1.89-7.994-1.89-12.413v-1.743c0-4.42.62-8.557 1.86-12.413 1.24-3.857 3.1-7.22 5.582-10.088 2.48-2.868 5.552-5.136 9.215-6.802 3.663-1.667 7.917-2.5 12.762-2.5 3.875 0 7.46.58 10.755 1.744 3.295 1.163 6.134 2.8 8.518 4.913 2.384 2.113 4.235 4.67 5.552 7.675 1.318 3.004 1.94 6.367 1.86 10.088h-15.232c.077-1.55-.155-3.023-.698-4.42-.542-1.394-1.337-2.596-2.384-3.604-1.045-1.008-2.305-1.813-3.778-2.414-1.473-.6-3.08-.9-4.826-.9-2.558 0-4.67.523-6.337 1.57-1.668 1.046-2.995 2.44-3.984 4.185-.988 1.746-1.686 3.742-2.093 5.99-.407 2.248-.61 4.574-.61 6.977v1.744c0 2.443.194 4.798.58 7.065.39 2.268 1.077 4.264 2.065 5.99.99 1.724 2.326 3.11 4.012 4.156 1.686 1.048 3.828 1.57 6.425 1.57zm72.64 11.745c-.386-.775-.716-1.666-.987-2.674-.27-1.007-.504-2.073-.698-3.197-.892.97-1.92 1.88-3.082 2.733-1.163.853-2.452 1.6-3.867 2.238-1.413.64-2.973 1.144-4.68 1.512-1.704.368-3.546.552-5.522.552-3.218 0-6.173-.465-8.867-1.395-2.693-.93-5.01-2.23-6.947-3.896-1.938-1.666-3.45-3.653-4.535-5.96-1.085-2.305-1.628-4.815-1.628-7.528 0-6.63 2.47-11.756 7.413-15.38 4.942-3.624 12.316-5.436 22.123-5.436h9.012v-3.72c0-3.025-.988-5.418-2.965-7.182-1.977-1.763-4.826-2.645-8.547-2.645-3.295 0-5.698.707-7.21 2.122-1.51 1.414-2.267 3.303-2.267 5.668h-16.165c0-2.675.592-5.214 1.774-7.617 1.18-2.402 2.906-4.514 5.173-6.336 2.268-1.822 5.04-3.266 8.315-4.332 3.275-1.066 7.025-1.6 11.25-1.6 3.8 0 7.336.467 10.61 1.397 3.276.93 6.115 2.305 8.52 4.127 2.402 1.822 4.282 4.118 5.638 6.89 1.357 2.77 2.035 5.98 2.035 9.622v26.977c0 3.372.214 6.163.64 8.372.427 2.21 1.047 4.108 1.86 5.697v.988h-16.395zM156.4 77.968c1.628 0 3.14-.194 4.535-.582 1.395-.387 2.655-.89 3.78-1.51 1.123-.62 2.092-1.33 2.906-2.123.813-.795 1.453-1.6 1.918-2.413V60.525h-8.256c-2.52 0-4.67.243-6.454.727-1.783.485-3.236 1.163-4.36 2.035-1.125.872-1.958 1.92-2.5 3.14-.543 1.22-.815 2.548-.815 3.982 0 2.17.766 3.972 2.297 5.407 1.53 1.434 3.847 2.15 6.948 2.15zm79.873-5.93c0-.97-.22-1.822-.667-2.56-.446-.735-1.24-1.423-2.384-2.063-1.144-.64-2.666-1.23-4.565-1.773-1.9-.543-4.303-1.086-7.21-1.628-3.682-.737-7.044-1.657-10.087-2.762s-5.65-2.442-7.82-4.012c-2.17-1.57-3.867-3.382-5.088-5.436-1.22-2.054-1.83-4.42-1.83-7.093 0-2.596.62-5.077 1.86-7.44 1.24-2.366 3.023-4.44 5.35-6.222 2.324-1.783 5.154-3.198 8.487-4.245 3.334-1.046 7.093-1.57 11.28-1.57 4.38 0 8.314.514 11.802 1.54 3.488 1.028 6.443 2.443 8.866 4.246 2.423 1.8 4.273 3.942 5.552 6.423 1.28 2.48 1.92 5.175 1.92 8.082h-16.164c0-2.442-.99-4.487-2.965-6.134-1.978-1.646-4.982-2.47-9.013-2.47-3.76 0-6.6.678-8.518 2.035-1.92 1.356-2.88 3.023-2.88 5 0 .93.195 1.793.582 2.587.388.795 1.076 1.512 2.064 2.152.99.64 2.336 1.22 4.04 1.744 1.707.523 3.877.98 6.513 1.366 3.798.62 7.325 1.415 10.58 2.384 3.257.97 6.067 2.22 8.43 3.75 2.366 1.53 4.217 3.392 5.554 5.582 1.337 2.19 2.006 4.796 2.006 7.82 0 2.79-.67 5.358-2.006 7.703-1.337 2.345-3.237 4.37-5.698 6.076-2.46 1.705-5.436 3.032-8.925 3.982-3.487.95-7.383 1.424-11.685 1.424-4.73 0-8.906-.62-12.53-1.86-3.624-1.24-6.657-2.86-9.1-4.855-2.44-1.995-4.292-4.263-5.55-6.802-1.26-2.538-1.89-5.087-1.89-7.645h15.407c.116 1.705.58 3.17 1.395 4.39.814 1.22 1.86 2.21 3.14 2.965 1.28.756 2.742 1.308 4.39 1.657 1.647.35 3.342.523 5.087.523 3.992 0 7.035-.64 9.128-1.92 2.093-1.278 3.14-2.925 3.14-4.94zm52.258-61.05v15.408h23.49v11.92h-23.49V65.35c0 2.288.26 4.197.785 5.728.523 1.53 1.27 2.752 2.238 3.663.97.912 2.143 1.56 3.52 1.95 1.375.386 2.915.58 4.62.58 1.24 0 2.51-.058 3.81-.174 1.298-.117 2.538-.262 3.72-.436 1.183-.175 2.287-.36 3.314-.553 1.028-.194 1.91-.387 2.646-.58l1.57 11.104c-1.124.66-2.442 1.232-3.954 1.716-1.512.485-3.12.882-4.826 1.192-1.705.31-3.48.552-5.32.727-1.84.174-3.653.26-5.436.26-3.45 0-6.58-.454-9.39-1.365-2.81-.91-5.213-2.326-7.21-4.244-1.996-1.92-3.536-4.36-4.622-7.326-1.085-2.965-1.628-6.522-1.628-10.67V38.316h-14.36v-11.92h14.36V10.99h16.164zm49.698 24.07c2.093-3.06 4.642-5.464 7.646-7.208 3.004-1.744 6.366-2.617 10.087-2.617 3.294 0 6.317.495 9.07 1.483 2.75.988 5.116 2.53 7.092 4.622 1.977 2.093 3.518 4.778 4.623 8.053 1.104 3.276 1.657 7.22 1.657 11.833v38.082h-16.164v-38.2c0-2.247-.28-4.185-.843-5.813-.562-1.628-1.366-2.946-2.413-3.953-1.046-1.01-2.306-1.755-3.78-2.24-1.472-.484-3.138-.727-5-.727-2.712 0-5.067.485-7.063 1.454-1.997.97-3.635 2.326-4.914 4.07v45.408h-16.163V0h16.163v35.06zm86.327 54.247c-.387-.775-.717-1.666-.988-2.674-.272-1.007-.504-2.073-.698-3.197-.89.97-1.92 1.88-3.08 2.733-1.164.853-2.453 1.6-3.868 2.238-1.416.64-2.976 1.144-4.68 1.512-1.707.368-3.548.552-5.525.552-3.217 0-6.172-.465-8.866-1.395-2.695-.93-5.01-2.23-6.95-3.896-1.937-1.666-3.45-3.653-4.534-5.96-1.086-2.305-1.628-4.815-1.628-7.528 0-6.63 2.47-11.756 7.413-15.38 4.943-3.624 12.317-5.436 22.124-5.436h9.012v-3.72c0-3.025-.99-5.418-2.966-7.182-1.976-1.763-4.825-2.645-8.546-2.645-3.295 0-5.698.707-7.21 2.122-1.512 1.414-2.267 3.303-2.267 5.668h-16.164c0-2.675.59-5.214 1.774-7.617 1.182-2.402 2.907-4.514 5.174-6.336 2.27-1.822 5.04-3.266 8.315-4.332 3.276-1.066 7.026-1.6 11.25-1.6 3.8 0 7.336.467 10.612 1.397 3.275.93 6.114 2.305 8.517 4.127 2.404 1.822 4.283 4.118 5.64 6.89 1.357 2.77 2.035 5.98 2.035 9.622v26.977c0 3.372.212 6.163.64 8.372.425 2.21 1.045 4.108 1.86 5.697v.988h-16.397zm-15.407-11.337c1.628 0 3.14-.194 4.535-.582 1.396-.387 2.656-.89 3.78-1.51 1.124-.62 2.093-1.33 2.907-2.123.814-.795 1.454-1.6 1.92-2.413V60.525h-8.257c-2.52 0-4.67.243-6.454.727-1.783.485-3.237 1.163-4.36 2.035-1.125.872-1.958 1.92-2.5 3.14-.544 1.22-.815 2.548-.815 3.982 0 2.17.767 3.972 2.298 5.407 1.53 1.434 3.847 2.15 6.948 2.15zm67.14-.407c1.59 0 3.1-.232 4.535-.697 1.435-.465 2.695-1.124 3.78-1.977 1.086-.852 1.93-1.88 2.53-3.08.6-1.203.862-2.54.785-4.013h15.233c.077 3.256-.59 6.28-2.006 9.07-1.415 2.79-3.343 5.194-5.785 7.21-2.442 2.015-5.282 3.595-8.518 4.738-3.238 1.145-6.658 1.716-10.263 1.716-4.884 0-9.167-.823-12.85-2.47-3.682-1.648-6.753-3.906-9.215-6.774-2.46-2.868-4.322-6.23-5.58-10.088-1.26-3.856-1.89-7.994-1.89-12.413v-1.743c0-4.42.62-8.557 1.86-12.413 1.24-3.857 3.1-7.22 5.58-10.088 2.482-2.868 5.554-5.136 9.217-6.802 3.662-1.667 7.916-2.5 12.76-2.5 3.877 0 7.462.58 10.757 1.744 3.295 1.163 6.134 2.8 8.518 4.913 2.383 2.113 4.234 4.67 5.552 7.675 1.318 3.004 1.938 6.367 1.86 10.088h-15.232c.077-1.55-.156-3.023-.698-4.42-.543-1.394-1.337-2.596-2.384-3.604s-2.306-1.813-3.78-2.414c-1.472-.6-3.08-.9-4.825-.9-2.558 0-4.67.523-6.337 1.57-1.666 1.046-2.994 2.44-3.982 4.185-.988 1.746-1.686 3.742-2.093 5.99-.407 2.248-.61 4.574-.61 6.977v1.744c0 2.443.193 4.798.58 7.065.388 2.268 1.076 4.264 2.065 5.99.988 1.724 2.325 3.11 4.012 4.156 1.686 1.048 3.827 1.57 6.424 1.57zm59-14.244l-7.325 6.803v19.185H511.8V0h16.163v51.048l4.885-5.58 17.384-19.072h19.42l-23.723 26.222 27.036 36.687h-19.827l-17.85-25.99zm70.05 27.152c-4.847 0-9.246-.794-13.2-2.384-3.953-1.59-7.345-3.75-10.174-6.482-2.83-2.733-5.01-5.95-6.54-9.652-1.532-3.702-2.298-7.665-2.298-11.89v-2.325c0-4.807.756-9.196 2.268-13.17 1.51-3.973 3.624-7.393 6.337-10.26 2.712-2.87 5.93-5.1 9.65-6.688 3.722-1.59 7.772-2.384 12.152-2.384 4.535 0 8.576.747 12.123 2.24 3.546 1.49 6.55 3.594 9.012 6.307 2.46 2.714 4.33 5.98 5.61 9.797 1.28 3.818 1.92 8.033 1.92 12.646v6.86H589.52c.31 2.132.94 4.08 1.89 5.844.95 1.763 2.16 3.285 3.634 4.564 1.472 1.28 3.16 2.268 5.058 2.966 1.9.698 3.973 1.047 6.22 1.047 1.59 0 3.17-.155 4.74-.465 1.57-.31 3.07-.766 4.506-1.367 1.434-.6 2.77-1.346 4.01-2.237 1.242-.892 2.327-1.938 3.257-3.14l8.082 8.72c-1.008 1.436-2.316 2.84-3.925 4.217-1.608 1.376-3.508 2.597-5.698 3.663-2.19 1.065-4.622 1.928-7.296 2.587-2.675.66-5.562.988-8.663.988zm-1.92-52.153c-1.822 0-3.49.32-5 .96-1.512.64-2.84 1.56-3.983 2.76-1.143 1.203-2.103 2.637-2.878 4.304-.775 1.666-1.357 3.526-1.744 5.58h26.513v-1.28c-.077-1.704-.407-3.313-.988-4.824-.58-1.512-1.415-2.82-2.5-3.925-1.085-1.104-2.413-1.976-3.983-2.615-1.57-.64-3.382-.96-5.436-.96zm79.757-13.082c2.442 0 4.7.165 6.774.495 2.073.33 3.75.688 5.03 1.075l-2.385 16.105c-2.132-.503-4.312-.88-6.54-1.133-2.23-.252-4.352-.378-6.367-.378-4.535 0-8.17.872-10.902 2.616-2.732 1.744-4.777 4.244-6.134 7.5v37.792h-16.164v-62.91h15.06l.754 10.292c2.56-3.566 5.62-6.366 9.187-8.4 3.566-2.036 7.46-3.054 11.686-3.054zm29.663 71.34h-15.06L729.465 4.65h15.06l-31.688 91.923zm35.698-50.758v-15.64l52.327 21.28v13.198L748.535 85.99V70.294L781.85 59.13l3.546-1.163-3.49-1.163-33.372-10.99z" fill="#363B40" fill-rule="evenodd"/>
</svg>
